<?xml version="1.0" encoding="UTF-8"?><svg xmlns="http://www.w3.org/2000/svg" viewBox="0 0 701.4 627.96"><defs><style>.cls-1,.cls-2{stroke-width:0px;}.cls-2{fill:#fff;}</style></defs><g id="facebook"><path class="cls-2" d="m314.15,559.6s-.05,0-.07,0c.02,0,.05,0,.07,0Z"/><path class="cls-2" d="m354.37,561.5c-.68.02-1.36.04-2.04.06.68-.02,1.36-.04,2.04-.06Z"/><path class="cls-2" d="m360.59,561.23c-.81.04-1.63.08-2.44.12.81-.04,1.63-.08,2.44-.12Z"/><path class="cls-2" d="m334.13,561.33c-.42-.02-.83-.04-1.25-.06.42.02.83.04,1.25.06Z"/><path class="cls-2" d="m340.45,561.55c-.51-.01-1.02-.03-1.53-.04.51.01,1.02.03,1.53.04Z"/><path class="cls-2" d="m346.45,53.81c-140.23,0-253.91,113.68-253.91,253.91,0,126.73,92.85,231.77,214.24,250.82v-177.41h-64.49v-73.41h64.49v-55.95c0-63.66,37.92-98.8,95.91-98.8,27.78,0,56.84,4.96,56.84,4.96v62.49h-32.03c-31.56,0-41.38,19.6-41.38,39.67v47.63h70.41l-11.25,73.41h-59.17v177.41c121.39-19.05,214.24-124.08,214.24-250.82,0-140.23-113.68-253.91-253.91-253.91Z"/><path class="cls-2" d="m366.48,560.85c-.8.06-1.61.11-2.41.17.8-.06,1.61-.1,2.41-.17Z"/><path class="cls-2" d="m379.75,559.46c-.69.09-1.38.18-2.06.26.69-.08,1.38-.17,2.06-.26Z"/><path class="cls-2" d="m374.19,560.12c-.83.09-1.65.18-2.48.27.83-.08,1.65-.18,2.48-.27Z"/></g><g id="guias"><rect class="cls-1" x="600.45" y="561.77" width="2" height="2"/></g></svg>