<?xml version="1.0" encoding="UTF-8"?><svg xmlns="http://www.w3.org/2000/svg" viewBox="0 0 701.4 627.96"><defs><style>.cls-1,.cls-2{stroke-width:0px;}.cls-2{fill:#fff;}</style></defs><g id="instagram"><path class="cls-2" d="m241.45,55.46c-27.01,1.27-45.46,5.59-61.58,11.92-16.69,6.5-30.83,15.23-44.91,29.36-14.07,14.13-22.74,28.28-29.2,45-6.25,16.16-10.48,34.62-11.68,61.65-1.19,27.03-1.46,35.71-1.33,104.66.13,68.94.44,77.58,1.75,104.67,1.29,27.01,5.59,45.45,11.92,61.58,6.51,16.69,15.23,30.83,29.36,44.91,14.13,14.08,28.28,22.73,45.03,29.19,16.15,6.24,34.61,10.49,61.63,11.68,27.02,1.18,35.72,1.46,104.64,1.33,68.92-.13,77.6-.44,104.68-1.72,27.08-1.28,45.42-5.61,61.56-11.92,16.69-6.53,30.84-15.23,44.91-29.37,14.07-14.14,22.73-28.3,29.18-45.03,6.26-16.15,10.51-34.61,11.68-61.61,1.18-27.1,1.46-35.75,1.33-104.68-.13-68.93-.44-77.57-1.73-104.64-1.28-27.07-5.59-45.46-11.92-61.6-6.52-16.69-15.23-30.82-29.36-44.91-14.13-14.09-28.3-22.75-45.02-29.18-16.16-6.25-34.61-10.51-61.63-11.68-27.02-1.17-35.72-1.47-104.67-1.34s-77.58.43-104.66,1.75m2.97,458.93c-24.75-1.08-38.19-5.19-47.15-8.63-11.86-4.57-20.31-10.09-29.24-18.93s-14.41-17.32-19.04-29.15c-3.48-8.96-7.67-22.38-8.82-47.13-1.26-26.75-1.52-34.79-1.67-102.56s.11-75.8,1.28-102.56c1.06-24.73,5.19-38.19,8.63-47.14,4.57-11.88,10.07-20.31,18.93-29.23,8.86-8.92,17.31-14.41,29.16-19.05,8.95-3.49,22.37-7.65,47.11-8.82,26.77-1.27,34.8-1.52,102.56-1.67,67.77-.15,75.81.11,102.59,1.28,24.73,1.08,38.19,5.17,47.13,8.63,11.87,4.57,20.31,10.06,29.23,18.93,8.92,8.88,14.42,17.3,19.05,29.17,3.5,8.92,7.65,22.34,8.82,47.1,1.27,26.77,1.56,34.8,1.69,102.56.12,67.76-.12,75.81-1.29,102.56-1.08,24.75-5.18,38.2-8.63,47.16-4.57,11.86-10.08,20.31-18.94,29.23-8.87,8.92-17.31,14.41-29.16,19.04-8.94,3.49-22.38,7.65-47.1,8.83-26.77,1.26-34.8,1.52-102.59,1.67s-75.79-.13-102.56-1.28m206.95-342.53c.03,16.82,13.69,30.44,30.52,30.41s30.44-13.69,30.41-30.52c-.03-16.82-13.69-30.44-30.52-30.41,0,0,0,0-.01,0-16.82.03-30.43,13.69-30.4,30.52m-235.13,135.94c.14,72,58.61,130.23,130.6,130.09s130.26-58.6,130.12-130.6-58.62-130.25-130.62-130.1c-71.99.14-130.23,58.62-130.1,130.61m45.73-.09c-.09-46.74,37.72-84.7,84.46-84.79,46.74-.09,84.7,37.72,84.79,84.46.09,46.74-37.72,84.7-84.46,84.79-46.73.1-84.69-37.71-84.79-84.44v-.02"/></g><g id="guias"><rect class="cls-1" x="600.45" y="561.77" width="2" height="2"/></g></svg>