<?xml version="1.0" encoding="UTF-8"?><svg xmlns="http://www.w3.org/2000/svg" viewBox="0 0 701.4 627.96"><defs><style>.cls-1,.cls-2{stroke-width:0px;}.cls-2{fill:#fff;}</style></defs><g id="linkedin"><path class="cls-2" d="m562.82,53.81v.03H129.94c-20.46-.23-37.24,16.16-37.49,36.62v434.67c.24,20.47,17.02,36.87,37.49,36.65h432.88c20.51.26,37.35-16.15,37.63-36.65V90.42c-.29-20.5-17.14-36.89-37.63-36.62ZM243.11,486.64h-75.35v-242.41h75.35v242.41Zm-37.63-275.54c-24.12,0-43.68-19.55-43.69-43.67,0-24.12,19.55-43.68,43.67-43.69,24.12,0,43.68,19.55,43.69,43.67,0,24.12-19.55,43.68-43.67,43.69Zm319.82,275.54h-75.27v-117.88c0-28.11-.5-64.29-39.15-64.29s-45.2,30.63-45.2,62.25v119.91h-75.27v-242.4h72.26v33.13h1.01c14.73-25.19,42.13-40.24,71.29-39.16,76.29,0,90.36,50.18,90.36,115.46l-.03,132.98Z"/></g><g id="guias"><rect class="cls-1" x="600.45" y="561.77" width="2" height="2"/></g></svg>