<?xml version="1.0" encoding="UTF-8"?><svg xmlns="http://www.w3.org/2000/svg" viewBox="0 0 701.4 627.96"><defs><style>.cls-1,.cls-2{stroke-width:0px;}.cls-2{fill:#fff;}</style></defs><g id="youtube"><path class="cls-2" d="m589.84,185.52c-5.84-21.86-23.06-39.07-44.91-44.91-39.62-10.62-198.47-10.62-198.47-10.62,0,0-158.86,0-198.47,10.62-21.86,5.84-39.07,23.06-44.91,44.91-10.62,39.62-10.62,122.27-10.62,122.27,0,0,0,82.66,10.62,122.27,5.84,21.86,23.06,39.07,44.91,44.91,39.62,10.62,198.47,10.62,198.47,10.62,0,0,158.86,0,198.47-10.62,21.86-5.84,39.07-23.06,44.91-44.91,10.62-39.62,10.62-122.27,10.62-122.27,0,0,0-82.66-10.62-122.27Zm-294.18,198.47v-152.4l131.98,76.2-131.98,76.2Z"/></g><g id="guias"><rect class="cls-1" x="600.45" y="561.77" width="2" height="2"/></g></svg>